<?xml version="1.0" encoding="UTF-8"?>
<svg id="Layer_2" xmlns="http://www.w3.org/2000/svg" xmlns:xlink="http://www.w3.org/1999/xlink" viewBox="0 0 34.98 34.98">
  <defs>
    <style>
      .cls-1 {
        fill: none;
      }

      .cls-2 {
        fill: #aa75ad;
      }

      .cls-3 {
        opacity: .45;
      }

      .cls-4 {
        fill: #f5f2f2;
      }

      .cls-5 {
        clip-path: url(#clippath);
      }
    </style>
    <clipPath id="clippath">
      <circle class="cls-1" cx="17.49" cy="17.49" r="17.49"/>
    </clipPath>
  </defs>
  <g id="Capa_1">
    <g class="cls-5">
      <circle class="cls-4" cx="17.45" cy="17.52" r="17.49"/>
      <g>
        <path class="cls-2" d="M18.24-.75c.67.71,1.3,2.44,1.67,4.55l.21,1.18-.54.81c-.46.7-.57.8-.79.72-.33-.12-1.75-.12-2.07,0-.22.08-.33-.02-.79-.72l-.54-.81.21-1.18c.25-1.41.61-2.63,1.03-3.53.33-.7.88-1.37,1.12-1.37.08,0,.29.16.48.36h0ZM13.85.13l.55.52-.29,1.16-.29,1.16-.87-.87-.87-.87.13-.48c.36-1.31.75-1.46,1.63-.63h0ZM22.99-.05c.09.18.23.54.3.81l.13.48-.87.87-.87.87-.29-1.16-.29-1.16.54-.51c.66-.63,1.08-.68,1.34-.19h0ZM9.87,1.96c1.41.94,2.97,2.65,4.48,4.9l.78,1.17-.3.77c-.17.42-.36,1-.44,1.28-.08.28-.16.51-.19.51s-.53-.3-1.11-.67c-.58-.37-1.67-.98-2.42-1.36l-1.36-.69-.42-1.21c-.59-1.68-.81-2.73-.83-3.87-.02-1.18.12-1.44.75-1.33.23.04.71.26,1.06.49h0ZM27.3,1.63c.11.13.16.51.15,1.23-.02,1.75-.92,4.51-2.36,7.25-.4.76-.75,1.41-.77,1.43s-.25-.12-.49-.3c-.4-.31-.54-.34-1.47-.36h-1.02s-.2-.78-.2-.78c-.11-.42-.33-1.06-.48-1.4l-.28-.63.7-1.05c1.38-2.09,2.75-3.67,3.98-4.62,1.19-.92,1.92-1.16,2.25-.76h0ZM5.94,4.48c.38.14.43.21.61.94.11.43.26.97.34,1.18.12.35.12.38-.07.31-.12-.05-.65-.2-1.19-.34-.95-.25-.99-.27-1.11-.69-.15-.49-.18-1.36-.06-1.48.13-.13,1.03-.08,1.49.08h0ZM31.11,4.85c.02.27-.02.69-.1.97q-.13.49-1.12.75c-.54.14-1.08.29-1.2.34-.19.08-.2.04-.07-.31.08-.22.23-.75.34-1.18.18-.72.23-.8.61-.94.23-.08.66-.14.96-.13q.54.02.58.5h0ZM4.85,8.32c1.75.42,5.13,1.84,6.47,2.71l.28.18-.33.43c-.3.39-.33.52-.33,1.5s-.02,1.07-.24,1.07c-.13,0-.7.16-1.27.37s-1.11.4-1.22.43c-.12.04-.75-.31-1.68-.94-2.94-1.99-5.55-4.97-5-5.71.33-.45,1.56-.46,3.33-.04h0ZM33.94,8.32c.19.22.19.28.02.69-.59,1.39-2.63,3.47-4.98,5.06l-1.5,1.01-.55-.22c-.31-.12-.88-.31-1.28-.43-.4-.12-.71-.27-.69-.34.02-.07.28-.52.59-1.01.31-.48.9-1.53,1.31-2.32l.75-1.45.68-.27c2.48-1,5.12-1.34,5.65-.73h0ZM18.4,8.65c.45.5.82,1.36,1.05,2.47.14.68.13.71-.14.89-.16.11-.57.46-.92.79l-.63.6-.63-.6c-.35-.33-.76-.68-.92-.79-.27-.19-.28-.22-.14-.89.32-1.54,1.12-2.94,1.69-2.94.12,0,.41.22.64.47h0ZM1.86,14.1l-1.16.31-.38-.36c-.21-.19-.48-.54-.59-.75-.29-.53-.13-.72.83-1.01l.74-.22.87.86.87.86-1.16.31h0ZM35.69,12.59c.14.09.27.24.27.33,0,.19-.31.65-.75,1.12l-.35.37-1.19-.31-1.19-.31.86-.86.86-.86.6.17c.34.1.72.25.87.34h0ZM14.37,13.07c.47.23,1.03.68,1.85,1.52q1.54,1.57,3.09-.01c1.26-1.28,2.17-1.84,3.01-1.87.41-.01.45.02.49.34.1.82-1.14,2.62-2.67,3.89-.35.29-.45.45-.45.76,0,.34.16.55,1.19,1.56.88.86,1.29,1.36,1.57,1.94.43.87.49,1.43.19,1.55-.69.26-2.6-.87-3.66-2.17-1.01-1.24-1.41-1.24-2.42,0-1.06,1.3-2.97,2.44-3.66,2.17-.31-.12-.24-.68.19-1.55.28-.57.69-1.07,1.57-1.94,1.02-1,1.19-1.22,1.19-1.56,0-.31-.11-.48-.52-.83-1.01-.85-1.79-1.77-2.2-2.59-.4-.8-.52-1.38-.32-1.57.15-.14.86.02,1.58.37h0ZM5.85,15.91c.41.27.76.5.77.51,0,0-.05.29-.14.63-.15.57-.1,1.23.11,1.75.06.14-.12.33-.74.75l-.82.55-1.02-.18c-2.24-.39-4.17-1.11-4.83-1.81-.26-.28-.27-.33-.1-.61.37-.65,2.11-1.4,4.27-1.84,1.56-.32,1.67-.3,2.51.26h0ZM33.15,15.89c1.56.39,3.01,1.1,3.29,1.61.16.29.15.34-.11.61-.66.7-2.59,1.43-4.83,1.81l-1.02.18-.82-.55c-.61-.42-.8-.6-.74-.75.22-.53.26-1.17.11-1.75-.12-.47-.13-.63-.02-.7.08-.05.4-.27.74-.51.57-.41.64-.42,1.31-.36.39.04,1.33.22,2.09.41h0ZM12.17,16.34c.19.25.54.67.78.93l.44.48-.83.89-.83.89-.86-.19c-1.5-.33-2.65-1.05-2.65-1.64,0-.28.75-.93,1.37-1.19.5-.21,1.39-.46,2.15-.6.04,0,.22.19.42.44h0ZM24.87,16.16c1.22.3,2.41,1.07,2.41,1.54,0,.59-1.16,1.31-2.65,1.64l-.86.19-.83-.89-.83-.89.44-.48c.24-.27.6-.69.79-.94.37-.48.34-.48,1.52-.18h0ZM8.42,20.47c.06.06.58.27,1.16.46l1.05.34-.81,1.33c-.45.74-1.05,1.83-1.34,2.44l-.54,1.1-1.04.38c-2.09.76-4.15,1.11-5,.86-1.17-.34.22-2.54,3.07-4.87.75-.61,3.03-2.15,3.2-2.15.07,0,.18.05.25.11h0ZM28.73,21.2c3.11,2.11,5.31,4.45,5.31,5.65,0,.45-.08.5-.95.58-1.47.13-4.22-.68-7.07-2.08-2.35-1.16-2.21-1.05-1.82-1.5.37-.44.49-.98.41-1.87-.06-.64-.05-.67.26-.73.53-.11,2.12-.68,2.24-.8.2-.19.35-.12,1.63.75h0ZM1.96,21.4c.43.11.82.23.87.27.05.04-.28.45-.74.9l-.83.82-.65-.19c-.63-.18-1.06-.49-1.06-.76,0-.07.26-.42.56-.75.44-.48.62-.6.81-.55.14.04.6.16,1.04.27h0ZM35.26,21.53c.24.25.5.57.57.73.2.4-.1.71-.93.95l-.65.19-.83-.82c-.46-.45-.83-.85-.83-.88,0-.06,1.79-.56,2.12-.6.07,0,.31.19.55.44h0ZM18.66,22.92c1.02.85,1.01.81.53,2.36-.45,1.45-1.1,2.14-1.73,1.86-.56-.26-1.32-1.9-1.41-3.06-.03-.4.03-.49.81-1.16.47-.41.86-.73.87-.74.02,0,.44.34.93.75h0ZM12.48,24.58c.28.08.73.1,1.02.06.29-.04.55-.08.6-.08s.18.38.3.84.33,1.06.46,1.33c.13.27.25.55.25.62,0,.15-1.28,2.09-1.91,2.89-1.28,1.64-3.39,3.5-4.25,3.74-.52.15-.69.04-.84-.53-.41-1.54,1.09-6.25,2.99-9.34l.17-.28.36.3c.2.17.58.36.86.44h0ZM25.01,26.99c1.15.58,1.17.59,1.4,1.22.78,2.09,1.22,4.23,1.06,5.1-.17.87-.6.94-1.69.26-.74-.46-2.41-2.05-3.24-3.1-1.03-1.29-2.14-3.02-2.08-3.24.03-.11.17-.46.31-.8.14-.34.31-.83.37-1.11l.12-.51,1.3.79c.71.43,1.82,1.05,2.46,1.37h0ZM6.83,29c-.1.31-.24.86-.31,1.19-.12.59-.15.63-.62.74-.94.23-1.09.25-1.31.13-.26-.14-.29-.88-.06-1.54.14-.39.21-.44.99-.63.47-.11.98-.26,1.15-.33.17-.07.31-.13.33-.13.01,0-.06.25-.16.57h0ZM29.34,28.73c.29.09.76.23,1.04.3.45.12.52.19.63.58.16.57.16,1.31,0,1.41-.21.13-.8.11-1.37-.05-.51-.14-.55-.18-.62-.65-.04-.27-.18-.78-.3-1.13-.25-.72-.22-.74.62-.46h0ZM17.35,29.07c.39.09.63.08,1.09-.07.33-.11.59-.18.6-.17,0,.01.24.35.52.76.6.87.61,1.06.19,2.88-.52,2.29-1.32,3.92-1.95,4.01-.35.05-.92-.67-1.35-1.72-.38-.92-.97-3.39-.97-4.05,0-.53.93-1.95,1.21-1.83.1.04.4.13.68.19h0ZM14.12,33.69l.28,1.16-.32.34c-.18.19-.51.43-.75.56l-.43.22-.23-.28c-.12-.15-.31-.55-.4-.88l-.17-.6.81-.83c.44-.46.83-.83.87-.84.03,0,.19.51.34,1.15h0ZM22.58,33.37l.83.84-.17.6c-.1.33-.28.73-.4.88l-.23.28-.43-.22c-.24-.13-.57-.37-.75-.56l-.32-.34.28-1.16c.16-.64.3-1.16.33-1.16s.42.38.87.84h0Z"/>
        <path class="cls-2" d="M17.32,16.91c-.91.4-.58,1.75.43,1.75.52,0,.96-.42.96-.92,0-.4-.33-.89-.59-.89-.06,0-.19-.03-.27-.05-.09-.03-.33.02-.54.11h0Z"/>
      </g>
      <g class="cls-3">
        <g>
          <path class="cls-2" d="M17.42-.75c.7.68,1.41,2.38,1.87,4.47l.26,1.17-.5.84c-.43.72-.54.83-.76.76-.33-.1-1.75-.04-2.07.09-.21.09-.33,0-.82-.69l-.57-.79.16-1.19c.19-1.42.49-2.66.88-3.58.3-.71.82-1.41,1.06-1.42.08,0,.3.14.5.34h0ZM13.07.32l.58.5-.24,1.18-.24,1.18-.91-.83-.91-.83.11-.49c.3-1.33.68-1.5,1.6-.7h0ZM22.2-.26c.1.17.25.53.34.79l.15.48-.83.91-.83.91-.34-1.15-.34-1.15L20.87-.02c.63-.65,1.05-.73,1.33-.25h0ZM9.18,2.32c1.45.88,3.09,2.52,4.69,4.7l.83,1.13-.27.78c-.15.43-.32,1.01-.38,1.3-.06.28-.14.52-.16.52s-.54-.28-1.14-.62c-.6-.34-1.71-.9-2.48-1.25l-1.39-.63-.48-1.19c-.66-1.65-.93-2.69-1-3.83-.07-1.18.06-1.44.69-1.37.23.03.72.23,1.08.45h0ZM26.58,1.22c.12.13.18.5.2,1.22.06,1.74-.72,4.55-2.03,7.34-.36.78-.68,1.44-.71,1.46s-.25-.1-.5-.28c-.42-.29-.56-.32-1.49-.29l-1.02.03-.24-.76c-.13-.42-.38-1.04-.54-1.38l-.31-.62.65-1.08c1.29-2.15,2.58-3.78,3.77-4.79,1.15-.97,1.86-1.25,2.22-.86h0ZM5.36,5.02c.38.12.44.2.65.91.13.43.3.95.39,1.17.14.34.13.38-.06.31-.12-.04-.66-.17-1.21-.28-.96-.2-1-.22-1.14-.64-.17-.49-.24-1.35-.12-1.48.13-.14,1.03-.13,1.49.01h0ZM30.53,4.27c.03.27,0,.69-.05.97q-.11.5-1.09.8c-.54.16-1.07.34-1.18.39-.18.08-.19.05-.09-.3.07-.22.19-.76.28-1.2.15-.73.2-.81.57-.97.23-.09.65-.17.95-.17q.54,0,.6.47h0ZM4.45,8.9c1.77.34,5.21,1.61,6.59,2.42l.29.17-.31.44c-.29.4-.31.53-.26,1.51s.03,1.07-.19,1.08c-.13,0-.69.2-1.25.42s-1.1.45-1.2.49c-.12.05-.77-.28-1.72-.86-3.03-1.86-5.76-4.72-5.25-5.48.31-.46,1.53-.53,3.32-.18h0ZM33.51,7.61c.2.21.21.27.05.69-.52,1.42-2.48,3.59-4.76,5.28l-1.45,1.08-.56-.19c-.31-.11-.89-.27-1.3-.37-.4-.1-.72-.24-.71-.31.01-.07.26-.54.55-1.03.29-.49.83-1.56,1.21-2.38l.69-1.48.66-.3c2.44-1.11,5.05-1.57,5.61-.98h0ZM17.99,8.63c.48.48.88,1.32,1.16,2.42.17.67.17.7-.1.9-.15.11-.55.48-.88.83l-.61.62-.66-.57c-.36-.31-.79-.65-.95-.75-.28-.17-.29-.2-.18-.89.25-1.56.99-2.99,1.56-3.01.12,0,.42.2.66.44h0ZM1.71,14.8l-1.15.36-.4-.34c-.22-.18-.5-.51-.63-.73-.31-.52-.17-.71.78-1.04l.72-.25.91.82.91.82-1.15.36h0ZM35.45,11.8c.15.08.28.23.29.31,0,.19-.28.66-.7,1.15l-.33.39-1.2-.26-1.2-.26.82-.89.82-.89.61.15c.34.08.73.22.89.3h0ZM14.16,13.23c.48.2,1.06.64,1.91,1.43q1.61,1.5,3.09-.15c1.2-1.33,2.08-1.94,2.92-2,.41-.03.45,0,.5.31.13.82-1.02,2.67-2.49,4-.34.3-.43.47-.41.78.01.34.19.54,1.26,1.5.92.82,1.34,1.3,1.65,1.86.46.85.56,1.41.26,1.54-.67.29-2.63-.76-3.75-2.01-1.07-1.2-1.46-1.18-2.42.11-1,1.35-2.86,2.57-3.56,2.33-.31-.1-.27-.67.12-1.55.26-.58.64-1.1,1.48-2,.98-1.05,1.13-1.27,1.12-1.61-.01-.31-.13-.48-.55-.81-1.05-.81-1.87-1.69-2.31-2.49-.43-.78-.58-1.36-.39-1.56.14-.15.86-.01,1.59.3h0ZM5.79,16.44c.42.25.78.47.79.48.01,0-.04.29-.11.63-.12.57-.05,1.24.19,1.74.07.14-.11.34-.7.78l-.79.59-1.03-.13c-2.26-.29-4.22-.93-4.91-1.6-.27-.27-.28-.31-.13-.61.34-.66,2.05-1.49,4.19-2.03,1.54-.38,1.65-.38,2.52.14h0ZM33.06,15.21c1.57.32,3.05.97,3.35,1.46.17.28.17.33-.08.62-.62.73-2.52,1.54-4.75,2.03l-1.02.22-.84-.52c-.63-.39-.83-.57-.77-.71.2-.53.21-1.18.04-1.75-.14-.46-.16-.63-.05-.7.08-.05.39-.29.72-.54.55-.43.62-.45,1.3-.42.39.02,1.33.16,2.1.32h0ZM12.11,16.59c.2.24.57.64.82.9l.46.46-.79.92-.79.92-.86-.15c-1.51-.27-2.7-.93-2.72-1.52-.01-.28.71-.96,1.32-1.25.49-.23,1.36-.52,2.12-.7.04,0,.23.18.44.42h0ZM24.79,15.84c1.23.25,2.46.96,2.48,1.43.03.59-1.1,1.36-2.58,1.76l-.85.23-.86-.85-.86-.85.42-.5c.23-.28.57-.71.75-.97.35-.5.31-.49,1.51-.25h0ZM8.55,20.88c.07.06.6.24,1.18.41l1.06.3-.75,1.37c-.41.75-.97,1.87-1.24,2.49l-.49,1.13-1.02.42c-2.05.85-4.09,1.29-4.96,1.08-1.18-.29.1-2.54,2.86-5,.72-.64,2.94-2.28,3.1-2.29.07,0,.19.04.25.1h0ZM28.87,20.71c3.2,1.97,5.5,4.21,5.55,5.41.02.45-.06.51-.93.62-1.47.2-4.25-.49-7.15-1.77-2.4-1.06-2.25-.95-1.89-1.42.35-.45.45-1,.33-1.89-.08-.64-.08-.66.22-.74.52-.14,2.09-.77,2.21-.9.19-.2.34-.13,1.66.68h0ZM2.14,22.1c.44.09.83.19.89.23.05.04-.26.46-.7.93l-.79.86-.66-.16c-.63-.15-1.08-.45-1.09-.72,0-.07.24-.43.53-.78.41-.5.59-.63.79-.58.14.03.61.13,1.05.22h0ZM35.41,20.75c.25.24.52.55.6.7.22.39-.07.71-.89.99l-.64.22-.87-.78c-.48-.43-.87-.81-.87-.84,0-.06,1.77-.64,2.09-.69.07-.01.32.17.57.41h0ZM18.89,22.87c1.05.8,1.04.77.63,2.33-.39,1.47-1,2.19-1.65,1.93-.57-.23-1.41-1.84-1.55-3-.05-.4,0-.49.76-1.2.45-.43.82-.77.84-.77.02,0,.45.32.97.71h0ZM12.79,24.81c.28.06.73.07,1.02.02.29-.06.55-.1.59-.1s.19.37.33.82.38,1.04.52,1.3c.15.26.27.54.27.61,0,.15-1.19,2.14-1.78,2.98-1.21,1.69-3.23,3.65-4.08,3.93-.51.17-.69.07-.86-.49-.48-1.52.81-6.29,2.57-9.47l.16-.28.37.29c.21.16.6.34.88.4h0ZM25.41,26.66c1.17.52,1.19.54,1.45,1.16.87,2.05,1.41,4.17,1.28,5.05-.13.88-.55.96-1.68.34-.76-.42-2.49-1.94-3.38-2.95-1.09-1.24-2.28-2.93-2.22-3.15.03-.11.15-.47.27-.81.13-.34.27-.84.32-1.12l.1-.51,1.33.73c.73.4,1.87.97,2.52,1.26h0ZM7.34,29.48c-.08.32-.2.87-.25,1.21-.09.6-.12.63-.59.77-.93.27-1.08.3-1.31.19-.27-.13-.33-.87-.13-1.54.12-.4.19-.45.96-.67.46-.13.96-.3,1.13-.38.17-.08.31-.14.32-.15.01,0-.05.26-.13.57h0ZM29.82,28.21c.29.08.77.2,1.05.26.45.1.53.16.66.55.18.56.22,1.31.07,1.41-.2.14-.79.14-1.38,0-.51-.12-.56-.16-.65-.62-.05-.27-.21-.78-.35-1.12-.28-.71-.26-.73.6-.49h0ZM17.86,29.08c.4.08.63.05,1.08-.12.32-.12.58-.21.59-.2,0,.01.25.34.55.74.63.84.66,1.03.32,2.87-.42,2.31-1.14,3.98-1.77,4.1-.35.07-.95-.63-1.43-1.66-.42-.9-1.12-3.34-1.15-4-.02-.53.84-1.99,1.12-1.89.1.04.41.11.69.16h0ZM14.83,33.83l.33,1.14-.3.35c-.17.2-.49.46-.72.59l-.42.24-.24-.27c-.13-.15-.33-.54-.44-.86l-.2-.59.77-.87c.42-.48.8-.87.83-.88.03,0,.21.5.39,1.14h0ZM23.27,33.14l.86.8-.15.6c-.08.33-.25.74-.36.9l-.22.29-.44-.2c-.25-.11-.58-.34-.77-.53l-.33-.32.23-1.17c.13-.65.25-1.17.27-1.17s.43.36.9.8h0Z"/>
          <path class="cls-2" d="M17.29,16.93c-.9.44-.5,1.78.51,1.73.52-.02.94-.47.92-.96-.02-.4-.37-.88-.63-.87-.06,0-.19-.02-.27-.04-.09-.03-.33.03-.53.13h0Z"/>
        </g>
      </g>
    </g>
  </g>
</svg>