<svg width="32" height="32" viewBox="0 0 32 32" fill="none" xmlns="http://www.w3.org/2000/svg">
<path d="M2 22.6667H30M2 22.6667V27.3333H30V22.6667M2 22.6667V18C2 10.268 8.26802 4 16 4M30 22.6667V18C30 10.268 23.732 4 16 4M16 4V8.66667M16 8.66667C21.1546 8.66667 25.3333 12.8453 25.3333 18V22.6667H6.66667V18C6.66667 12.8453 10.8453 8.66667 16 8.66667ZM28.25 17.2222H25.3333M6.66667 17.2222H3.82292M8.48273 12.8821L4.54921 10.6111M11.8022 9.95149L10.0208 7.03772M20.1978 9.95149L22.0521 7.03772M23.5172 12.8821L27.4508 10.6111M17.7736 12.9257C19.3566 15.4987 20.1482 17.363 20.1482 18.5185C20.1482 20.8095 18.291 22.6667 16 22.6667C13.709 22.6667 11.8518 20.8095 11.8518 18.5185C11.8518 17.9851 12.0205 17.3005 12.3579 16.465L14.8878 17.9247L17.7736 12.9257Z" stroke="#242C04" stroke-linejoin="round"/>
</svg>
