<svg width="32" height="32" viewBox="0 0 32 32" fill="none" xmlns="http://www.w3.org/2000/svg">
<path d="M31.9999 17.0034H31.4999H0.99998H0V18.0035H0.99998V19.3348C0.99998 24.2706 4.71777 28.3538 9.49994 28.9326V30.5034H10.5V29.0013C10.5561 29.0023 10.6122 29.0034 10.6687 29.0034H21.5V30.5035H22.5V28.9799C27.5205 28.6352 31.5 24.4413 31.5 19.3347V18.0034H32L31.9999 17.0034ZM21.8313 28.0034H10.6686C5.88872 28.0034 1.99996 24.1147 1.99996 19.3348V18.0035H30.4999V19.3348H30.5C30.5 24.1147 26.6113 28.0034 21.8313 28.0034Z" fill="#252B15"/>
<path d="M28 19.0034H4.5V20.0035H28V19.0034Z" fill="#252B15"/>
<path d="M6.99287 4.69538V5.54019C5.57551 5.78202 4.49292 7.01841 4.49292 8.50369V9.0108H10.507V8.50369C10.507 7.01835 9.42444 5.78196 8.00702 5.54013V4.69538C8.00702 2.93151 6.57203 1.49658 4.80822 1.49658H0V2.51073H4.80822C6.01281 2.51073 6.99287 3.49079 6.99287 4.69538ZM7.49998 6.51065C8.42368 6.51065 9.20266 7.14243 9.42751 7.99651H5.57244C5.7973 7.14237 6.57628 6.51065 7.49998 6.51065Z" fill="#252B15"/>
<path d="M15.4929 11.5107H28.5071V4.51078H29.5V3.49663H29.4999H28.3164C28.0196 2.90436 27.4071 2.49658 26.7008 2.49658H17.2991C16.5928 2.49658 15.9802 2.90436 15.6835 3.49663H14.5V4.51078H15.4929V11.5107ZM16.507 4.30278C16.507 3.866 16.8623 3.51073 17.2991 3.51073H26.7008C27.1375 3.51073 27.4928 3.866 27.4928 4.30278V10.4965H16.507V4.30278Z" fill="#252B15"/>
<path d="M16.5063 12.0034H15.4922V13.5035H16.5063V12.0034Z" fill="#252B15"/>
<path d="M18.5063 12.0034H17.4922V13.5035H18.5063V12.0034Z" fill="#252B15"/>
<path d="M20.5063 12.0034H19.4922V13.5035H20.5063V12.0034Z" fill="#252B15"/>
<path d="M22.5063 12.0034H21.4922V13.5035H22.5063V12.0034Z" fill="#252B15"/>
<path d="M24.5063 12.0034H23.4922V13.5035H24.5063V12.0034Z" fill="#252B15"/>
<path d="M26.5063 12.0034H25.4922V13.5035H26.5063V12.0034Z" fill="#252B15"/>
<path d="M28.5063 12.0034H27.4922V13.5035H28.5063V12.0034Z" fill="#252B15"/>
<path d="M26.5 8.49658H17.5V9.51073H26.5V8.49658Z" fill="#252B15"/>
<path d="M6.00634 10.0034H4.99219V12.5034H6.00634V10.0034Z" fill="#252B15"/>
<path d="M8.00634 10.0034H6.99219V14.0034H8.00634V10.0034Z" fill="#252B15"/>
<path d="M10.0063 10.0034H8.99219V11.5035H10.0063V10.0034Z" fill="#252B15"/>
</svg>
