<svg width="32" height="32" viewBox="0 0 32 32" fill="none" xmlns="http://www.w3.org/2000/svg">
<path d="M2 18.5469V23.6402H30V18.5469" stroke="#242C04" stroke-miterlimit="10"/>
<path d="M2 13.4531H26.1867C26.6931 13.453 27.1945 13.5538 27.6615 13.7496C28.1286 13.9454 28.552 14.2323 28.9069 14.5935C29.2619 14.9547 29.5414 15.383 29.7291 15.8533C29.9168 16.3237 30.0089 16.8268 30 17.3331V18.6665H2V13.4531Z" stroke="#242C04" stroke-miterlimit="10"/>
<path d="M8.36048 8.35986H4.54715C3.14066 8.35986 2.00048 9.50004 2.00048 10.9065C2.00048 12.313 2 13.4532 2 13.4532H8.36048C9.76696 13.4532 10.9071 12.313 10.9071 10.9065C10.9071 9.50004 9.76696 8.35986 8.36048 8.35986Z" stroke="#242C04" stroke-miterlimit="10"/>
<path d="M13.4531 13.4531V18.5465" stroke="#242C04" stroke-miterlimit="10"/>
<path d="M2 3.2666V13.4533" stroke="#242C04" stroke-miterlimit="10"/>
<path d="M2 28.7335V23.6401" stroke="#242C04" stroke-miterlimit="10"/>
<path d="M30 28.7335V23.6401" stroke="#242C04" stroke-miterlimit="10"/>
</svg>
