<svg width="32" height="32" viewBox="0 0 32 32" fill="none" xmlns="http://www.w3.org/2000/svg">
<path d="M26.5 3H5.5C4.67157 3 4 3.65413 4 4.46104V28.539C4 29.3459 4.67157 30 5.5 30H26.5C27.3284 30 28 29.3459 28 28.539V4.46104C28 3.65413 27.3284 3 26.5 3Z" stroke="#252B15" stroke-miterlimit="10"/>
<path d="M5.5 3H26.5C26.8978 3 27.2794 3.13015 27.5607 3.36181C27.842 3.59347 28 3.90767 28 4.23529V10H4V4.23529C4 3.90767 4.15804 3.59347 4.43934 3.36181C4.72064 3.13015 5.10218 3 5.5 3Z" stroke="#252B15" stroke-linecap="round" stroke-linejoin="round"/>
<path d="M23.3733 13L9 13" stroke="#252B15" stroke-linecap="round" stroke-linejoin="round"/>
<path d="M7.8096 7.42114C8.2125 7.42114 8.53912 7.10301 8.53912 6.71057C8.53912 6.31813 8.2125 6 7.8096 6C7.4067 6 7.08008 6.31813 7.08008 6.71057C7.08008 7.10301 7.4067 7.42114 7.8096 7.42114Z" fill="#252B15"/>
<path d="M10.6084 7.42114C11.0113 7.42114 11.3379 7.10301 11.3379 6.71057C11.3379 6.31813 11.0113 6 10.6084 6C10.2055 6 9.87891 6.31813 9.87891 6.71057C9.87891 7.10301 10.2055 7.42114 10.6084 7.42114Z" fill="#252B15"/>
<path d="M21.1553 7.42114C21.5582 7.42114 21.8848 7.10301 21.8848 6.71057C21.8848 6.31813 21.5582 6 21.1553 6C20.7524 6 20.4258 6.31813 20.4258 6.71057C20.4258 7.10301 20.7524 7.42114 21.1553 7.42114Z" fill="#252B15"/>
<path d="M23.9561 7.42114C24.359 7.42114 24.6856 7.10301 24.6856 6.71057C24.6856 6.31813 24.359 6 23.9561 6C23.5532 6 23.2266 6.31813 23.2266 6.71057C23.2266 7.10301 23.5532 7.42114 23.9561 7.42114Z" fill="#252B15"/>
<path d="M17.4943 6.92329C17.4943 6.27213 16.9549 5.76611 16.3194 5.76611C15.6838 5.76611 15.1445 6.27222 15.1445 6.92329C15.1445 7.57411 15.6835 8.08065 16.3194 8.08065C16.9552 8.08065 17.4943 7.57421 17.4943 6.92329Z" stroke="#252B15"/>
<rect x="7.5" y="15.5" width="17" height="11" rx="0.5" stroke="#252B15"/>
<path d="M14 18L12.7071 19.2929C12.3166 19.6834 12.3166 20.3166 12.7071 20.7071L13.2929 21.2929C13.6834 21.6834 13.6834 22.3166 13.2929 22.7071L12 24" stroke="#252B15"/>
<path d="M19 18L17.7071 19.2929C17.3166 19.6834 17.3166 20.3166 17.7071 20.7071L18.2929 21.2929C18.6834 21.6834 18.6834 22.3166 18.2929 22.7071L17 24" stroke="#252B15"/>
</svg>
