<svg width="32" height="32" viewBox="0 0 32 32" fill="none" xmlns="http://www.w3.org/2000/svg">
<path d="M16.0004 4.98112H23.9947V0H8.00586V32H23.9947V7.5035L19.0155 7.52144L19.0135 8.00688C19.0101 8.86719 18.6374 9.68712 17.9911 10.2564C17.336 10.8336 16.492 11.0918 15.6154 10.9839C14.2566 10.8166 13.1595 9.70675 13.0068 8.34494C12.9089 7.47219 13.174 6.63469 13.7532 5.98688C14.3246 5.34769 15.1437 4.98112 16.0004 4.98112ZM13.0239 5.33475C12.2677 6.1805 11.907 7.31744 12.0345 8.45394C12.2372 10.2606 13.6929 11.7329 15.4959 11.9549C16.6374 12.0955 17.7825 11.7439 18.6378 10.9906C19.3711 10.3446 19.8384 9.45475 19.9602 8.49631L23.0163 8.48538V31.0216H8.98423V0.978375H23.0164V4.00281H16.0004C14.8655 4.00281 13.7806 4.48825 13.0239 5.33475Z" fill="#252B15"/>
<path d="M21.0028 22.0156H10.9961V22.994H21.0028V22.0156Z" fill="#252B15"/>
<path d="M21.0028 26.0181H10.9961V26.9964H21.0028V26.0181Z" fill="#252B15"/>
<path d="M21.0028 28.0195H10.9961V28.9979H21.0028V28.0195Z" fill="#252B15"/>
<path d="M13.9983 24.0166H10.9961V24.995H13.9983V24.0166Z" fill="#252B15"/>
</svg>
